<svg xmlns="http://www.w3.org/2000/svg" data-name="Layer 1" viewBox="0 0 800 289.96">
  <defs>
    <radialGradient id="pKfzwnVAQa" cx="155.85" cy="389.32" r="268.89" gradientUnits="userSpaceOnUse">
      <stop offset="0" stop-color="#fadc2f"/>
      <stop offset=".36" stop-color="#ef1b52"/>
      <stop offset=".73" stop-color="#e515af"/>
      <stop offset="1" stop-color="#06bdef"/>
    </radialGradient>
  </defs>
  <path d="M390 500a144.11 144.11 0 00-26.54-83.5 47 47 0 00-3.07-4.2 1.73 1.73 0 01-.17-.21c-.4-.51-.8-1-1.2-1.48A143.77 143.77 0 00245 355c-79.95 0-145 65-145 145s65.05 145 145 145a143.88 143.88 0 0077.73-22.63l.63-.43A145 145 0 00390 500zM245 372a127 127 0 01102 50.73l.08.1c.81 1.08 1.6 2.17 2.38 3.27a30.83 30.83 0 014.89 16.29 29.14 29.14 0 01-29.11 29.11c-10.51 0-20.93-6.73-26.54-17.15-19.89-36.89-55.06-58.92-94.08-58.92a104 104 0 00-47.07 11.2A127.57 127.57 0 01245 372zM117 500a87.69 87.69 0 0187.59-87.59c32.67 0 62.25 18.69 79.13 50 8.54 15.83 24.83 26.07 41.49 26.07a46.14 46.14 0 0041.87-26.93 127.67 127.67 0 01-25.73 122.57 41.61 41.61 0 00-41.4-38.19c-12.47 0-23.74 8.07-29.16 11.94l-1.21.87c-15.07 10.79-40.29 28.85-65 28.85A87.69 87.69 0 01117 500zm40.52 93.37a104 104 0 0047.07 11.2c30.15 0 58.15-20.05 74.88-32l1.2-.86c4-2.85 12.25-8.77 19.28-8.77a24.63 24.63 0 0124.6 24.6 23.85 23.85 0 01-10.47 20.17c-2.22 1.43-4.48 2.8-6.79 4.09A125.12 125.12 0 01245 628a127.57 127.57 0 01-87.5-34.63z" transform="translate(-100 -355.02)" fill="url(#pKfzwnVAQa)"/>
  <path d="M212.85 560.47a58.77 58.77 0 10-25-111.9 33.3 33.3 0 00-33.61 57.48 58.84 58.84 0 0058.61 54.42zm41.79-58.77a41.76 41.76 0 01-82.46 9.38A33.29 33.29 0 00201 461.66a41.73 41.73 0 0153.66 40zm-82.82-40.29a16.36 16.36 0 11-16.36 16.35 16.38 16.38 0 0116.36-16.35z" transform="translate(-100 -355.02)" fill="url(#pKfzwnVAQa)"/>
  <path d="M373.26 86.83a6.75 6.75 0 00-2.52 5.49 6.2 6.2 0 003.08 5.43q3.09 2 14.23 4.76t17.31 8.23q6.15 5.49 6.16 16a21.15 21.15 0 01-7.9 17.09q-7.89 6.54-20.78 6.55-18.6 0-33.49-13.78l10.42-12.77q12.65 11.15 23.41 11.15a12.3 12.3 0 007.56-2.07 6.65 6.65 0 002.74-5.6 6.52 6.52 0 00-2.91-5.6q-2.91-2.08-11.54-4.21-13.66-3.24-20-8.45t-6.33-16.36q0-11.15 8-17.19t20-6.05a47.94 47.94 0 0115.69 2.69 42.06 42.06 0 0113.66 7.61l-8.85 12.77q-10.18-7.72-21.06-7.73a10.55 10.55 0 00-6.88 2.04zm107.09-8.63q8.24 7 8.24 21.51t-8.46 21.27q-8.46 6.72-25.82 6.72h-10.42v21.84h-17.47v-78.3h27.67q18.03-.04 26.26 6.96zm-12.82 30.78q3.13-3.54 3.13-10.31t-4.08-9.63q-4.1-2.86-12.72-2.86h-10v26.33h11.76q8.78.03 11.91-3.53zm83.34-37.78h17.47v78.3h-17.47v-30.8h-31.14v30.8h-17.48V71.2h17.48v32.71h31.14zm93.2 0v15.57h-39v16.13h35.06v14.9h-35.04v16.24h40.21v15.46h-57.69V71.2zm80.32 25.99q0 18.82-14.9 24.31l19.83 28h-21.51l-17.36-25h-12.1v25h-17.48V71.2h29.69q18.26 0 26 6.16t7.83 19.83zm-21.06 9.3q3.24-2.91 3.25-9.25t-3.36-8.68q-3.36-2.34-11.77-2.35h-13.1v23.19h12.77q8.96 0 12.21-2.91zm95.44-35.29v15.57h-39v16.13h35.07v14.9h-35.06v16.24H800v15.46h-57.69V71.2zM391 171.83v9.44h-22.29v10.41h21.23v9.44h-21.23v18.86H358v-48.15zm29.81 0h10.75v48.15h-10.75zm76.97 0h10.75v48.15h-10.75l-22.95-30.18v30.18h-10.75v-48.15h10.07l23.63 31zm77.6 48.15l-4.48-10.4h-20.19l-4.48 10.4h-11.44l20.81-48.17H566l20.82 48.17zm-14.54-33.83l-6.07 14h12.06zm85.93-14.32h10.75v48.15h-10.75l-22.95-30.18v30.18h-10.75v-48.15h10.06l23.64 31zm65.39 38.66a15.86 15.86 0 0013-6.27l6.89 7.1q-8.21 9.23-19.33 9.23t-18.33-7a25.45 25.45 0 01.14-35.62 24.71 24.71 0 0118-7.17 25.45 25.45 0 0119.85 9l-6.69 7.58a15.64 15.64 0 00-12.77-6.36 14.78 14.78 0 00-10.37 4q-4.31 4-4.31 10.68t4.07 10.79a13.42 13.42 0 009.85 4.04zm83.73-38.66v9.58h-24v9.92h21.57v9.17h-21.55v10h24.74v9.48h-35.49v-48.15z" fill="#fff"/>
</svg>
